<svg width="198" height="180" viewBox="0 0 198 180" fill="none" xmlns="http://www.w3.org/2000/svg">
<g id="g3023">
<path id="path3025" fill-rule="evenodd" clip-rule="evenodd" d="M44.3688 66.0334C52.3289 83.6514 49.8975 101.922 38.9388 106.854C27.9798 111.786 12.6432 101.507 4.68384 83.8924C-3.27625 66.2779 -0.845202 48.0051 10.1138 43.0739C21.0728 38.144 36.4087 48.4238 44.3688 66.0334Z" fill="#EE765E" fill-opacity="0.57"/>
<path id="path3027" fill-rule="evenodd" clip-rule="evenodd" d="M152.696 66.0334C144.735 83.6514 147.167 101.922 158.126 106.854C169.085 111.786 184.421 101.507 192.382 83.8924C200.341 66.2779 197.909 48.0051 186.951 43.0739C175.992 38.144 160.656 48.4238 152.696 66.0334Z" fill="#EE765E" fill-opacity="0.57"/>
<path id="path3029" fill-rule="evenodd" clip-rule="evenodd" d="M90.9497 30.7232C95.03 49.6087 88.8104 66.9661 77.0585 69.4949C65.3074 72.0203 52.4731 58.7579 48.3935 39.8742C44.3138 20.989 50.5332 3.63091 62.2849 1.10453C74.0365 -1.4229 86.8702 11.8377 90.9497 30.7232Z" fill="#EE765E" fill-opacity="0.57"/>
<path id="path3031" fill-rule="evenodd" clip-rule="evenodd" d="M105.822 30.7394C101.746 49.6246 107.961 66.9837 119.712 69.5091C131.464 72.0379 144.298 58.7755 148.377 39.8907C152.457 21.0052 146.238 3.64712 134.486 1.12074C122.734 -1.40599 109.9 11.8539 105.822 30.7394Z" fill="#EE765E" fill-opacity="0.57"/>
<path id="path3033" fill-rule="evenodd" clip-rule="evenodd" d="M76.2412 93.8542C73.3731 98.7966 60.0821 115.157 50.8893 120.739C41.6972 126.32 30.3065 134.494 32.218 153.261C34.1285 172.031 53.425 180.065 66.1281 179.352C78.8318 178.643 102.783 176.31 119.883 178.675C136.982 181.039 158.563 179.247 163.617 161.277C168.671 143.306 157.368 131.856 148.548 125.36C139.728 118.866 124.999 99.4427 120.461 90.5255C115.924 81.6117 92.8289 65.2861 76.2412 93.8542Z" fill="#EE765E" fill-opacity="0.57"/>
</g>
</svg>
