<svg width="38" height="37" viewBox="0 0 38 37" fill="none" xmlns="http://www.w3.org/2000/svg">
<g id="logos:google-icon" clip-path="url(#clip0_29_60)">
<path id="Vector" d="M37.238 19.3097C37.238 17.8336 37.1114 16.7565 36.8372 15.6395H19.0125V22.3016H29.4752C29.2643 23.9572 28.1252 26.4505 25.5939 28.1259L25.5584 28.349L31.1942 32.4774L31.5847 32.5142C35.1707 29.3826 37.238 24.775 37.238 19.3097Z" fill="#4285F4"/>
<path id="Vector_2" d="M19.0125 36.8625C24.1383 36.8625 28.4415 35.2667 31.5847 32.5142L25.5939 28.1259C23.9907 29.1831 21.839 29.9211 19.0125 29.9211C13.992 29.9211 9.73097 26.7896 8.21203 22.4612L7.98939 22.4791L2.12913 26.7676L2.05249 26.969C5.17443 32.8332 11.5872 36.8625 19.0125 36.8625Z" fill="#34A853"/>
<path id="Vector_3" d="M8.2119 22.4612C7.81111 21.3442 7.57916 20.1474 7.57916 18.9107C7.57916 17.674 7.81111 16.4772 8.19081 15.3602L8.1802 15.1224L2.2465 10.765L2.05236 10.8523C0.765657 13.2858 0.0273438 16.0185 0.0273438 18.9107C0.0273438 21.803 0.765657 24.5355 2.05236 26.969L8.2119 22.4612Z" fill="#FBBC05"/>
<path id="Vector_4" d="M19.0125 7.90024C22.5774 7.90024 24.9821 9.35632 26.3533 10.5731L31.7112 5.62639C28.4206 2.73416 24.1383 0.958916 19.0125 0.958916C11.5872 0.958916 5.17443 4.98807 2.05249 10.8523L8.19094 15.3602C9.73097 11.0319 13.992 7.90024 19.0125 7.90024Z" fill="#EB4335"/>
</g>
<defs>
<clipPath id="clip0_29_60">
<rect width="37.2283" height="36.0274" fill="white" transform="translate(0.0273438 0.958916)"/>
</clipPath>
</defs>
</svg>
