<svg width="195" height="195" viewBox="0 0 195 195" fill="none" xmlns="http://www.w3.org/2000/svg">
<g id="211407169416267963423597 1" clip-path="url(#clip0_28_24)">
<path id="Vector" d="M116.318 106.071C112.224 99.6915 105.84 95.1236 98.4804 93.3071C91.1209 91.4905 83.345 92.5634 76.7524 96.3047L47.3206 112.982C30.5752 122.038 34.5766 148.237 53.2696 151.866C63.3495 154.069 72.7484 150.948 83.5197 153.814C94.7782 156.385 101.991 162.959 111.837 166.322C129.881 171.217 145.058 150.036 134.585 134.521L116.318 106.071Z" fill="#735858" fill-opacity="0.21"/>
<path id="Vector_2" d="M165.584 83.0439C156.707 78.9093 147.013 87.5289 142.951 96.0097C130.552 122.307 156.067 134.201 168.969 108.909C174.372 98.0391 172.88 86.6585 165.584 83.0439Z" fill="#735858" fill-opacity="0.21"/>
<path id="Vector_3" d="M122.354 88.231C131.635 90.5218 141.786 81.8337 144.981 68.8894C151.745 37.4961 119.946 29.6472 111.35 60.5883C108.155 73.5326 113.097 85.9462 122.354 88.231Z" fill="#735858" fill-opacity="0.21"/>
<path id="Vector_4" d="M57.8597 75.0068C58.2343 65.6157 53.6404 53.4695 43.8587 52.9985C25.4879 53.1021 23.7181 91.7653 40.5949 96.0347C50.2471 98.0803 57.4106 88.0588 57.8597 75.0068Z" fill="#735858" fill-opacity="0.21"/>
<path id="Vector_5" d="M79.7106 77.7054C88.967 79.9901 99.1181 71.3021 102.313 58.3577C109.102 26.9705 77.3026 19.1216 68.6823 50.0567C65.4872 63.001 70.4298 75.4146 79.7106 77.7054Z" fill="#735858" fill-opacity="0.21"/>
</g>
<defs>
<clipPath id="clip0_28_24">
<rect width="161" height="161" fill="white" transform="translate(38.5815 0.0547791) rotate(13.8651)"/>
</clipPath>
</defs>
</svg>
